<svg width="117" height="146" viewBox="0 0 117 146" fill="none" xmlns="http://www.w3.org/2000/svg">
<path d="M28.745 8.37329C12.0231 18.5267 0.851807 36.9097 0.851807 57.902C0.851807 78.4044 12.7578 104.212 34.4949 101.823C43.9238 100.524 50.4075 95.559 52.31 87.9411C53.1086 85.3776 53.0673 81.1959 53.0325 77.6755V77.6753C53.0193 76.3421 53.0071 75.104 53.0416 74.0844L60.0139 64.8863L69.223 80.5358L66.7666 81.9735C66.5935 82.0972 66.465 82.2749 66.3949 82.4759C66.2803 82.8921 66.5491 83.2918 66.9418 83.425L78.8085 88.6399C79.0351 88.7428 79.3109 88.7288 79.5259 88.6026C79.7434 88.4787 79.893 88.2472 79.9163 87.9971L81.0686 75.7954L81.1412 74.9773C81.2346 74.3601 80.4773 73.874 79.9561 74.2106L77.4762 75.6691L66.2756 56.6302L76.2678 43.4584L78.5373 45.1789C78.7055 45.3168 78.9277 45.3494 79.1404 45.3331V45.3191C79.5611 45.2793 79.8438 44.8656 79.7972 44.4589L80.1033 31.5045C80.1103 31.2543 79.9911 31.0065 79.7901 30.8546C79.5914 30.7004 79.3202 30.6513 79.0796 30.7237L67.3743 34.3001L67.3041 34.32L67.2713 34.3292C66.5743 34.5254 65.7323 34.7624 66.1307 35.691C66.0912 35.7702 67.5312 36.8455 68.244 37.3778L68.2446 37.3783C68.4574 37.5371 68.6052 37.6475 68.6293 37.6685L53.051 58.2151V32.8602H55.8956C56.1176 32.8672 56.3116 32.7527 56.4728 32.6124V32.6031C56.7838 32.3133 56.744 31.8247 56.4728 31.5231L48.8789 21.0044C48.7316 20.801 48.4862 20.6748 48.2362 20.6771C47.986 20.6748 47.7406 20.801 47.5957 21.0044L40.4272 30.9178L39.9456 31.5886V31.6027C39.5623 32.0842 39.9784 32.8766 40.5861 32.8509H43.4587V82.2446C43.4422 84.0468 43.0893 85.8654 42.2993 87.49C41.098 90.0448 38.6016 91.7675 35.8787 92.3518C29.2395 93.7768 23.168 90.7719 19.1011 85.3886C12.8704 76.8148 10.3144 67.3265 10.3144 57.902C10.3144 40.3862 19.6114 25.0416 33.5399 16.534L28.745 8.37329Z" fill="white"/>
<path d="M87.4148 108.224L82.6198 100.064C75.5756 104.06 67.4312 106.341 58.754 106.341V106.328C54.0226 106.328 48.8586 105.621 44.1095 104.088C38.9089 106.573 32.9173 107.482 27.0693 106.412C37.3504 113.1 47.9396 115.804 58.754 115.804C69.1808 115.804 78.9641 113.048 87.4148 108.224Z" fill="#6AB946"/>
<path d="M107.065 61.4548C106.001 76.1249 98.4045 88.9833 87.1702 97.1345L91.9829 105.326C105.987 95.4952 115.438 79.6196 116.546 61.4895L107.065 61.4548Z" fill="#FA501E"/>
<path d="M107.158 56.0476C106.632 42.0664 100.181 29.6015 90.2422 21.0916L95.9887 13.5574C108.193 23.8158 116.101 39.0195 116.628 56.0822L107.158 56.0476Z" fill="#FCB92C"/>
<path d="M58.7538 0C70.9911 0 82.3417 3.79619 91.6922 10.2752L85.9458 17.8091C78.1935 12.5411 68.8332 9.4626 58.7538 9.4626C51.4481 9.4626 44.5202 11.0799 38.3085 13.9761L33.4956 5.78488C41.1287 2.07868 49.6985 0 58.7538 0Z" fill="#0F7EE6"/>
<path d="M0 144.755H10.8142V142.045H3.23672V128.019H0V144.755Z" fill="white"/>
<path d="M16.5081 136.425C16.5081 140.991 19.9205 145.056 25.4404 145.056C31.0859 145.056 34.6739 140.715 34.6739 136.073C34.6739 131.507 31.2364 127.718 25.6662 127.718C19.7447 127.718 16.5081 132.059 16.5081 136.425ZM19.8953 136.324C19.8953 133.313 21.9026 130.453 25.616 130.453C29.3294 130.453 31.3117 133.288 31.3117 136.274C31.3117 139.335 29.204 142.32 25.5157 142.32C21.7772 142.32 19.8953 139.185 19.8953 136.324Z" fill="white"/>
<path d="M46.1706 144.755H49.3822V130.729H54.8772V128.019H40.6506V130.729H46.1706V144.755Z" fill="white"/>
<path d="M62.394 144.755H65.6307V138.432H68.0144L72.1293 144.755H75.943L71.2259 137.629C72.907 136.776 74.1366 135.17 74.1366 133.012C74.1366 130.277 72.2798 128.019 67.9642 128.019H62.394V144.755ZM65.6307 135.747V130.729H67.4373C69.9213 130.729 70.7493 131.783 70.7493 133.163C70.7493 134.743 69.6955 135.747 67.4624 135.747H65.6307Z" fill="white"/>
<path d="M85.1235 125.234L90.7939 126.99L91.4213 125.309L86.0016 122.926L85.1235 125.234ZM83.2166 144.755H93.9555V142.045H86.4533V137.603H92.2242V134.919H86.4533V130.729H93.7797V128.019H83.2166V144.755Z" fill="white"/>
<path d="M102.03 144.755H105.266V137.327H105.718L111.614 144.755H115.704L108.453 135.847L115.353 128.019H111.364L105.718 134.643H105.266V128.019H102.03V144.755Z" fill="white"/>
</svg>
